/vscmnt/brussel_pixiu_data/_data_brussel/112/vsc11236/PredSimResults/SUBJ06mtu3D/weighted-expIG/worker_02.mot
version=1
nRows=9
nColumns=50
inDegrees=yes
endheader
                time	         pelvis_tilt	         pelvis_list	     pelvis_rotation	           pelvis_tx	           pelvis_ty	           pelvis_tz	       hip_flexion_r	     hip_adduction_r	      hip_rotation_r	        knee_angle_r	       ankle_angle_r	         mtp_angle_r	       hip_flexion_l	     hip_adduction_l	      hip_rotation_l	        knee_angle_l	       ankle_angle_l	         mtp_angle_l	    lumbar_extension	      lumbar_bending	     lumbar_rotation	 ercspn_r/activation	 intobl_r/activation	 extobl_r/activation	    abd_r/activation	    add_r/activation	hamstrings_r/activation	bifemsh_r/activation	glut_max_r/activation	iliopsoas_r/activation	rect_fem_r/activation	  vasti_r/activation	gastroc_r/activation	 soleus_r/activation	tib_ant_r/activation	 ercspn_l/activation	 intobl_l/activation	 extobl_l/activation	    abd_l/activation	    add_l/activation	hamstrings_l/activation	bifemsh_l/activation	glut_max_l/activation	iliopsoas_l/activation	rect_fem_l/activation	  vasti_l/activation	gastroc_l/activation	 soleus_l/activation	tib_ant_l/activation	
          0.00000000	         -8.23443040	          5.07462979	        -13.82159450	          0.00000000	          0.96434020	          0.00742741	         19.45597117	          1.65158241	         12.32014859	        -23.53265503	         13.72563586	          0.72493681	         25.38272974	          2.76816782	         -6.87041862	        -38.57523752	         -0.71158542	         25.17446218	         -3.61876905	         -1.66247894	        -10.14796545	          0.12393811	          0.09698966	          0.05618661	          0.15685592	          0.14136214	          0.20644104	          0.01122615	          0.01105219	          0.01530456	          0.04325061	          0.05951685	          0.00999999	          0.01000000	          0.37374744	          0.10130611	          0.13404561	          0.00999999	          0.02199997	          0.00999999	          0.01000000	          0.26787385	          0.01483091	          0.30385815	          0.46589784	          0.00999999	          0.15936417	          0.07278074	          0.14646442	
          0.02000000	         -7.87329098	          5.03149534	        -13.27591545	          0.01910458	          0.95914355	          0.00573800	         18.08385069	          1.30156914	         11.93090699	        -23.31930084	         14.99616103	          1.35595123	         29.37809662	          2.93121921	         -6.07272216	        -47.88401324	         -0.84866978	         22.65957842	         -4.18973149	         -1.54475425	         -9.42598464	          0.09295358	          0.07274225	          0.04213996	          0.17685192	          0.10602161	          0.15483078	          0.01000000	          0.00999999	          0.01147842	          0.03243796	          0.19208575	          0.12747649	          0.21894716	          0.28031058	          0.14654925	          0.14443124	          0.29609411	          0.01649998	          0.00999999	          0.00999999	          0.23718151	          0.01112318	          0.22789362	          0.77109908	          0.00999999	          0.11952313	          0.05458556	          0.30703535	
          0.04000000	         -7.60974016	          4.82430974	        -12.67502865	          0.03852423	          0.95257889	          0.00410701	         16.35367359	          0.88179777	         11.26311891	        -23.41621212	         17.13439322	          3.41187694	         33.12453643	          2.97726616	         -5.47757843	        -55.89142716	          0.01101419	         17.90741910	         -4.68429774	         -1.28779116	         -8.66175135	          0.06971519	          0.05455668	          0.03160497	          0.25615223	          0.07951620	          0.11612308	          0.01000006	          0.11451607	          0.00999999	          0.02432847	          0.21441451	          0.16469280	          0.28849176	          0.21023293	          0.14670885	          0.13933512	          0.28053977	          0.01237498	          0.00999999	          0.00999999	          0.17788615	          0.00999999	          0.18972326	          0.90189961	          0.00999999	          0.08964235	          0.04093917	          0.34293415	
          0.06000000	         -7.44956517	          4.46094634	        -12.05253997	          0.05784582	          0.94697922	          0.00279159	         14.68514884	          0.67972624	         10.40547750	        -23.46327591	         19.00298090	          5.54706125	         36.14146773	          2.82662084	         -4.94358539	        -60.41297753	          2.12465752	         13.89324263	         -5.18745098	         -0.96239573	         -7.87262022	          0.05228639	          0.04091751	          0.02370373	          0.27278384	          0.05963715	          0.08709231	          0.01000001	          0.08588705	          0.00999999	          0.01824635	          0.25197503	          0.20993027	          0.35947601	          0.15767470	          0.13757530	          0.16280231	          0.21040483	          0.00999999	          0.00999999	          0.00999999	          0.13341461	          0.00999999	          0.17977168	          0.88584100	          0.00999999	          0.06723176	          0.03070437	          0.32802358	
          0.08000000	         -7.36509735	          4.10100521	        -11.39517105	          0.07717117	          0.94344309	          0.00166214	         13.18880193	          0.54673229	          9.46022579	        -23.53664574	         20.01612002	          7.66187747	         38.38145169	          2.64249713	         -4.44246171	        -61.22473834	          3.84113512	         10.65621598	         -5.69133988	         -0.74553293	         -7.07080857	          0.03921482	          0.03068814	          0.01777780	          0.22715842	          0.04472786	          0.06531923	          0.01000001	          0.06441529	          0.00999999	          0.08025737	          0.25521950	          0.23977052	          0.39448107	          0.11825603	          0.16286076	          0.15872650	          0.15780362	          0.01000000	          0.00999999	          0.00999999	          0.10006096	          0.00999999	          0.15501331	          0.66438075	          0.01379801	          0.05042382	          0.02302828	          0.30151352	
          0.10000000	         -7.34017973	          3.78092927	        -10.68622731	          0.09701948	          0.94182474	          0.00071408	         11.58451117	          0.39539955	          8.42668755	        -23.20548935	         20.24857762	          9.74428672	         39.75246155	          2.50082421	         -3.91371917	        -58.82908579	          5.29680694	          8.13877276	         -6.12247741	         -0.67239784	         -6.27213478	          0.05336626	          0.02301610	          0.01333335	          0.20591003	          0.03354590	          0.04898943	          0.01000000	          0.04831147	          0.00999999	          0.13237486	          0.19584979	          0.26218817	          0.40257592	          0.08869202	          0.16168625	          0.11904488	          0.11835272	          0.00999999	          0.00999999	          0.00999999	          0.07504572	          0.01799749	          0.13744947	          0.49828556	          0.01830714	          0.03781786	          0.01727121	          0.28011621	
          0.12000000	         -7.36666660	          3.49529951	         -9.94809929	          0.11775137	          0.94149877	         -0.00006192	          9.79479833	          0.23238642	          7.32302921	        -22.42244976	         19.89480249	         11.79743253	         40.17828142	          2.41480223	         -3.31629677	        -53.69632006	          6.27555666	          6.19757000	         -6.41803727	         -0.71392375	         -5.46694902	          0.04646177	          0.01726208	          0.01000001	          0.18189246	          0.02515942	          0.03674207	          0.01000000	          0.03623360	          0.00999999	          0.15000878	          0.14688734	          0.28181466	          0.39276929	          0.06651901	          0.16606719	          0.08928366	          0.08876454	          0.00999999	          0.00999999	          0.00999999	          0.05628429	          0.03189223	          0.14016323	          0.37371417	          0.01373036	          0.02836340	          0.01295341	          0.26132142	
          0.14000000	         -7.43213754	          3.24029850	         -9.20110031	          0.13959236	          0.94177122	         -0.00064999	          7.80966611	          0.07825234	          6.16872107	        -21.25247843	         19.13392308	         13.84365429	         39.63935635	          2.38175698	         -2.59944283	        -46.25295592	          6.86551685	          4.72410706	         -6.54278607	         -0.85722564	         -4.65967929	          0.03484633	          0.01294656	          0.00999999	          0.15084027	          0.01886957	          0.02755655	          0.01000000	          0.02717520	          0.00999999	          0.15125882	          0.11016551	          0.30014785	          0.37232387	          0.04988926	          0.17451582	          0.06696274	          0.06657340	          0.00999999	          0.01730021	          0.00999999	          0.04221322	          0.02542015	          0.11897306	          0.28028563	          0.01029777	          0.02127255	          0.01000000	          0.26044431	
          0.16000000	         -7.51980995	          2.95981432	         -8.43583278	          0.16277006	          0.94205066	         -0.00103852	          5.59713071	          0.00589833	          4.95694450	        -19.74352329	         18.09861963	         15.89725429	         38.14153497	          2.35981893	         -1.62310342	        -36.86419485	          7.24402264	          3.57479860	         -6.48177719	         -1.04184280	         -3.87639839	          0.02781757	          0.00999999	          0.01000000	          0.11313021	          0.01415218	          0.02066742	          0.01000035	          0.02038140	          0.01000006	          0.11344412	          0.08262413	          0.31432397	          0.34829311	          0.03741695	          0.19279146	          0.05022206	          0.04993005	          0.00999999	          0.04266371	          0.01000001	          0.03165993	          0.01906511	          0.10707349	          0.21021422	          0.00999999	          0.01595441	          0.00999999	          0.25833684	
